<?xml version="1.0" standalone="no"?>
<!DOCTYPE svg PUBLIC "-//W3C//DTD SVG 20010904//EN"
 "http://www.w3.org/TR/2001/REC-SVG-20010904/DTD/svg10.dtd">
<svg version="1.0" xmlns="http://www.w3.org/2000/svg"
 width="687.000000pt" height="687.000000pt" viewBox="0 0 687.000000 687.000000"
 preserveAspectRatio="xMidYMid meet">
<metadata>
Created by potrace 1.14, written by Peter Selinger 2001-2017
</metadata>
<g transform="translate(0.000000,687.000000) scale(0.100000,-0.100000)"
fill="#000000" stroke="none">
<path d="M3380 6833 c-19 -8 -43 -22 -52 -30 -16 -14 -45 -16 -147 -9 -26 1
-68 -6 -105 -19 -34 -12 -84 -22 -110 -23 -61 -3 -110 -26 -137 -64 -19 -26
-25 -29 -58 -23 -49 8 -94 6 -105 -5 -6 -6 -17 -10 -27 -10 -9 0 -36 -23 -60
-51 -24 -28 -59 -68 -78 -90 -42 -50 -148 -106 -212 -113 -63 -7 -101 -27
-139 -75 -33 -41 -32 -40 -167 -55 -49 -6 -102 -31 -123 -59 -37 -49 -78 -86
-112 -100 -20 -8 -44 -27 -53 -41 -20 -30 -40 -33 -54 -9 -7 13 -3 25 16 50
14 18 32 33 39 33 8 0 19 12 25 26 7 21 6 31 -7 45 -19 22 -40 24 -81 8 -31
-12 -37 -10 -40 11 -3 24 -36 42 -65 36 -44 -9 -45 14 -3 50 21 17 40 39 41
47 3 20 -32 51 -71 64 -42 14 -73 0 -90 -40 -17 -40 -72 -85 -116 -94 -30 -6
-32 -5 -26 19 13 52 -52 90 -94 56 -23 -20 -38 -63 -28 -79 14 -23 10 -35 -15
-47 -36 -16 -58 5 -61 57 -3 49 -10 59 -50 66 -68 14 -86 -42 -43 -132 27 -58
23 -79 -14 -70 -36 9 -69 -17 -63 -50 2 -15 9 -31 14 -36 7 -7 3 -20 -10 -38
-19 -28 -21 -28 -49 -14 -54 28 -88 14 -108 -43 -17 -50 -1 -76 43 -69 48 8
78 -2 69 -22 -4 -9 -10 -38 -15 -65 -4 -27 -10 -50 -11 -51 -2 -2 -22 -5 -46
-9 -58 -8 -79 -21 -85 -52 -7 -36 11 -84 31 -85 10 0 25 -2 34 -4 9 -2 28 3
43 11 35 18 32 19 49 -15 14 -26 14 -30 0 -42 -9 -7 -25 -14 -37 -16 -47 -7
-63 -56 -31 -101 22 -31 55 -27 109 14 53 40 75 38 75 -5 0 -33 17 -43 98 -53
15 -2 15 0 -2 -34 -19 -35 -9 -53 39 -70 43 -15 85 -2 85 26 0 11 10 20 25 22
20 4 25 1 25 -14 0 -21 33 -89 63 -130 20 -27 20 -31 6 -76 -17 -53 -9 -140
16 -179 8 -12 15 -42 15 -65 1 -49 39 -146 64 -160 12 -7 14 -17 9 -46 -16
-77 -8 -124 34 -202 22 -41 50 -80 63 -87 12 -6 50 -40 84 -76 33 -36 79 -74
101 -84 55 -25 145 -29 187 -7 31 16 33 16 43 -1 5 -10 17 -25 25 -34 8 -9 26
-31 38 -49 16 -21 32 -32 48 -32 19 0 28 -8 35 -30 6 -16 17 -30 24 -30 7 0
18 -6 24 -13 8 -11 5 -17 -17 -28 -69 -36 -95 -112 -75 -225 7 -38 21 -65 53
-103 24 -28 51 -51 60 -51 9 0 26 -11 38 -24 12 -15 36 -27 59 -31 21 -3 53
-10 72 -16 18 -6 47 -13 64 -16 48 -7 87 -31 97 -58 5 -14 14 -25 19 -25 5 0
14 -13 19 -30 6 -16 43 -61 82 -101 41 -41 74 -83 76 -98 6 -32 30 -70 50 -78
8 -3 28 -34 43 -68 18 -40 37 -65 50 -70 12 -3 21 -10 21 -14 0 -12 88 -33
108 -27 10 3 30 7 46 10 16 3 47 22 67 42 38 37 39 37 59 19 11 -10 19 -23 17
-29 -4 -10 27 -58 58 -92 5 -7 21 -27 35 -45 14 -18 37 -44 51 -58 15 -14 39
-50 53 -79 15 -30 37 -58 51 -64 14 -6 25 -15 25 -20 0 -4 5 -7 12 -5 6 1 25
-22 42 -50 16 -29 35 -53 42 -53 6 0 17 -12 23 -27 18 -41 43 -68 81 -87 19
-9 60 -46 90 -81 30 -36 62 -68 72 -71 10 -3 33 -20 52 -37 19 -18 71 -47 115
-66 72 -30 84 -33 121 -23 30 7 40 7 40 -2 0 -6 9 -30 21 -51 11 -22 22 -49
24 -59 3 -11 11 -24 19 -28 8 -4 18 -23 21 -41 4 -17 12 -41 18 -52 6 -11 12
-28 14 -39 2 -10 11 -30 21 -45 10 -14 23 -38 29 -53 11 -25 10 -27 -18 -37
-16 -5 -34 -21 -41 -35 -8 -19 -19 -26 -38 -26 -26 0 -60 -26 -60 -47 0 -6
-20 -27 -45 -47 -25 -21 -45 -44 -45 -51 0 -8 -22 -38 -50 -66 -36 -37 -50
-59 -50 -80 0 -20 -8 -33 -29 -45 -29 -17 -81 -109 -81 -143 0 -11 -12 -33
-26 -50 -18 -22 -28 -47 -30 -80 -3 -27 -13 -66 -23 -87 -11 -21 -17 -49 -15
-62 5 -23 -22 -92 -36 -92 -12 0 -30 -53 -26 -77 3 -11 11 -34 19 -50 20 -39
12 -80 -25 -133 -26 -38 -31 -54 -33 -116 -2 -61 -6 -77 -30 -108 -33 -43 -44
-115 -26 -169 11 -31 9 -39 -14 -73 -18 -26 -24 -47 -21 -66 10 -62 -95 -58
1347 -58 l1319 0 -1 898 c0 839 -1 900 -18 942 -16 39 -24 47 -63 60 -30 10
-51 24 -61 43 -9 15 -33 35 -54 44 -21 8 -44 24 -51 34 -8 12 -25 19 -46 19
-20 0 -40 8 -51 20 -11 13 -31 20 -52 20 -20 0 -46 9 -61 21 -19 15 -35 19
-57 15 -23 -5 -39 0 -64 18 -26 19 -38 23 -61 16 -34 -10 -122 -5 -147 8 -10
5 -27 7 -38 5 -11 -3 -38 -6 -60 -8 -22 -2 -55 -7 -72 -10 -27 -6 -34 -4 -38
11 -4 11 -15 37 -26 59 -10 22 -19 46 -19 52 0 7 -9 27 -19 44 -11 17 -17 38
-14 45 3 8 0 14 -5 14 -6 0 -18 24 -26 52 -8 29 -24 70 -34 90 l-20 37 24 33
c13 18 32 44 41 57 27 36 40 80 42 145 1 33 5 64 7 68 10 15 13 238 4 243 -5
3 -9 45 -9 93 0 127 -5 184 -19 209 -7 12 -10 36 -9 55 2 18 -1 47 -6 63 -5
17 -10 70 -10 118 -2 72 -5 91 -19 101 -10 7 -18 20 -18 27 0 8 -6 24 -14 35
-9 12 -11 26 -6 34 4 7 6 28 3 47 -6 36 -5 36 59 33 54 -2 113 33 148 88 28
44 30 52 26 127 -3 75 -20 135 -36 135 -12 0 -37 112 -35 150 2 19 -3 45 -11
57 -8 12 -14 43 -14 68 0 26 -4 54 -9 63 -5 9 -11 45 -14 80 -4 56 -1 70 29
132 19 38 34 73 34 77 0 5 10 28 23 53 73 145 -54 358 -199 334 -30 -5 -32 -3
-38 35 -3 22 -2 50 3 63 5 15 4 32 -3 48 -7 14 -12 34 -12 45 2 38 65 32 110
-10 25 -23 39 -27 101 -28 47 0 64 5 106 32 24 16 74 41 110 56 52 20 70 33
83 58 21 40 43 143 38 179 -4 33 -36 46 -60 25 -9 -8 -30 -18 -47 -21 -38 -9
-124 -10 -132 -2 -4 4 9 23 29 44 61 65 129 198 110 216 -8 9 -57 7 -68 -3 -5
-5 -46 -11 -91 -14 -97 -7 -99 -1 -16 58 31 22 62 54 69 71 7 17 20 37 29 44
40 33 58 106 29 117 -15 5 -123 -25 -134 -38 -3 -3 -31 -9 -62 -12 -51 -5 -58
-3 -58 12 0 10 9 30 20 44 11 14 20 29 20 34 0 4 12 25 26 46 14 21 27 54 29
75 3 20 7 51 11 69 5 25 2 33 -15 42 -24 13 -45 5 -75 -28 -11 -12 -30 -21
-43 -21 -12 0 -23 -4 -23 -9 0 -5 -13 -14 -30 -20 -41 -14 -40 7 4 68 38 53
46 74 52 139 3 33 -1 51 -13 64 -25 28 -68 23 -95 -11 -34 -42 -73 -64 -95
-53 -31 15 -136 7 -170 -13 -30 -18 -34 -18 -83 -2 -67 22 -107 21 -152 -1
-26 -14 -42 -16 -59 -9 -13 5 -51 11 -84 13 -55 4 -64 2 -110 -28 -43 -28 -59
-32 -115 -33 -59 -1 -70 -4 -119 -40 -45 -32 -56 -37 -72 -27 -10 7 -25 12
-33 12 -10 0 -13 10 -9 38 4 31 0 42 -26 70 -16 17 -38 32 -48 32 -10 0 -29 7
-41 16 -12 8 -31 17 -42 19 -11 2 -29 13 -41 24 -12 11 -42 23 -67 27 -25 4
-66 20 -91 35 -51 33 -104 37 -161 12z"/>
</g>
</svg>
